<svg width="357" height="159" viewBox="0 0 357 159" fill="none" xmlns="http://www.w3.org/2000/svg">
<path d="M256.638 0H0V159H256.638H357V0H256.638Z" fill="white"/>
<path d="M50.5305 29.2202H72.9285V109.798H123.569V129.77H50.5305V29.2202Z" fill="#33CC66"/>
<path d="M152.7 49.617H121.791V29.2202H205.948V49.617H175.048V129.79H152.7V49.617Z" fill="#33CC66"/>
<path d="M223.481 29.2203H263.092C270.547 29.1338 277.954 30.4254 284.931 33.0286C291.285 35.3943 297.105 38.9814 302.054 43.5831C306.813 48.0471 310.591 53.4349 313.153 59.4099C315.8 65.6731 317.132 72.4041 317.069 79.1934V79.4802C317.118 86.2681 315.786 92.9962 313.153 99.2637C310.611 105.284 306.831 110.714 302.054 115.209C297.095 119.816 291.28 123.424 284.931 125.833C277.965 128.486 270.555 129.805 263.092 129.72H223.481V29.2203ZM263.092 109.798C267.35 109.847 271.58 109.116 275.57 107.642C279.197 106.295 282.489 104.189 285.22 101.47C287.906 98.744 290.027 95.5248 291.464 91.9933C293.008 88.1079 293.771 83.9617 293.712 79.7869V79.5C293.757 75.3168 292.994 71.1636 291.464 67.2639C290.051 63.6788 287.928 60.4097 285.22 57.6491C282.481 54.9286 279.193 52.8117 275.57 51.4371C271.591 49.9162 267.356 49.1608 263.092 49.2115H245.829V109.798H263.092Z" fill="#33CC66"/>
</svg>
