<svg width="358" height="161" viewBox="0 0 358 161" fill="none" xmlns="http://www.w3.org/2000/svg">
<g clip-path="url(#clip0_2719_4100)">
<path d="M256.89 0H0V160.74H256.89H357.35V0H256.89Z" fill="#33CC66"/>
<path d="M50.58 29.54H73V111H123.69V131.19H50.58V29.54Z" fill="white"/>
<path d="M152.85 50.16H121.91V29.54H206.15V50.16H175.22V131.21H152.85V50.16Z" fill="white"/>
<path d="M223.7 29.54H263.35C270.813 29.4526 278.226 30.7583 285.21 33.39C291.571 35.7817 297.396 39.4079 302.35 44.06C307.114 48.5729 310.896 54.0197 313.46 60.06C316.11 66.3918 317.443 73.1965 317.38 80.06V80.35C317.428 87.2122 316.095 94.0139 313.46 100.35C310.916 106.436 307.132 111.926 302.35 116.47C297.387 121.127 291.565 124.775 285.21 127.21C278.238 129.892 270.82 131.226 263.35 131.14H223.7V29.54ZM263.35 111C267.612 111.049 271.847 110.31 275.84 108.82C279.471 107.458 282.765 105.33 285.5 102.58C288.188 99.8245 290.311 96.5702 291.75 93C293.295 89.0721 294.059 84.8805 294 80.66V80.37C294.045 76.141 293.281 71.9424 291.75 68C290.336 64.3756 288.211 61.0708 285.5 58.28C282.758 55.5297 279.466 53.3896 275.84 52C271.858 50.4625 267.619 49.6988 263.35 49.75H246.07V111H263.35Z" fill="white"/>
</g>
<defs>
<clipPath id="clip0_2719_4100">
<rect width="357.35" height="160.74" fill="white"/>
</clipPath>
</defs>
</svg>
